<svg xmlns="http://www.w3.org/2000/svg" id="Layer_2" viewBox="0 0 1241.31 212.11"><defs><style>.cls-1{fill:#fff;}.cls-2{fill:#0078d4;}</style></defs><g id="Layer_1-2"><g><path class="cls-2" d="M212.11,106.05c0,35.43-17.37,66.81-44.06,86.05-1.96,1.43-3.98,2.79-6.04,4.06-16.24,10.11-35.42,15.95-55.96,15.95C47.48,212.11,0,164.63,0,106.05S47.48,0,106.05,0c20.54,0,39.72,5.84,55.96,15.95,2.06,1.27,4.08,2.63,6.04,4.06,26.69,19.24,44.06,50.61,44.06,86.04Z"></path><g><path class="cls-1" d="M148.15,50.63c0,5.25,.53,13.92,.53,19.44,0,20.48-9.98,30.47-27.33,35.98h-33.5c17.34-5.51,27.32-15.5,27.32-35.98,0-5.52-.53-14.19-.53-19.44,0-8.06,.73-14.13,3.88-19.09,7.54-11.89,23.29-14.48,25.2-14.74,.73-.1,1.31-.15,2.44-.26,4.2-.37,9.47-.66,15.85-.59,2.06,1.27,4.08,2.63,6.04,4.06-17.16,7.01-19.9,15.19-19.9,30.62Z"></path><path class="cls-1" d="M168.05,192.1c-1.96,1.43-3.98,2.79-6.04,4.06-6.38,.07-11.65-.22-15.85-.59-1.13-.11-1.71-.16-2.44-.26-1.91-.26-17.66-2.85-25.2-14.74-3.15-4.96-3.88-11.03-3.88-19.09,0-5.25,.53-13.92,.53-19.44,0-20.49-9.98-30.47-27.32-35.99h33.5c17.35,5.52,27.33,15.5,27.33,35.99,0,5.52-.53,14.19-.53,19.44,0,15.43,2.74,23.61,19.9,30.62Z"></path></g><circle class="cls-1" cx="54.39" cy="106.05" r="9.84"></circle></g><g><path class="cls-1" d="M352.71,156.59h-16.28l-33.15-45.53-7.88,9.45v36.08h-12.6V51.59h12.6v49.35l41.33-49.35h16.42l-41.62,49.58,41.18,55.42Z"></path><path class="cls-1" d="M399.13,51.59h15.23l38.17,105h-13.35l-7.8-21.45h-49.27l-7.73,21.45h-13.42l38.17-105Zm-12.38,70.95h39.98l-20.03-54.83-19.95,54.83Z"></path><path class="cls-1" d="M533.61,51.59v12.6h-34.95v92.4h-12.6V64.19h-34.88v-12.6h82.42Z"></path><path class="cls-1" d="M583.11,158.54c-5.65,0-11.1-.89-16.35-2.66s-9.84-4.31-13.76-7.61c-3.93-3.3-6.71-7.22-8.36-11.78l11.78-4.42c1,2.8,2.86,5.24,5.59,7.31,2.72,2.08,5.94,3.69,9.64,4.84,3.7,1.15,7.52,1.72,11.47,1.72,4.5,0,8.69-.74,12.56-2.21s7.01-3.54,9.41-6.19c2.4-2.65,3.6-5.75,3.6-9.3s-1.25-6.64-3.75-8.96c-2.5-2.33-5.7-4.17-9.6-5.55-3.9-1.38-7.98-2.44-12.23-3.19-7.25-1.2-13.74-2.91-19.46-5.14-5.73-2.22-10.25-5.34-13.58-9.34-3.33-4-4.99-9.27-4.99-15.83,0-6.1,1.76-11.42,5.29-15.97,3.53-4.55,8.19-8.07,13.99-10.58,5.8-2.5,12.05-3.75,18.75-3.75,5.55,0,10.94,.86,16.16,2.59,5.22,1.72,9.84,4.24,13.84,7.54s6.88,7.33,8.62,12.08l-11.92,4.35c-1-2.85-2.86-5.31-5.59-7.39-2.73-2.07-5.93-3.68-9.6-4.8s-7.51-1.69-11.51-1.69c-4.45-.05-8.6,.68-12.45,2.18-3.85,1.5-6.98,3.58-9.38,6.22-2.4,2.65-3.6,5.73-3.6,9.22,0,4.2,1.11,7.41,3.34,9.64,2.22,2.23,5.26,3.89,9.11,4.99,3.85,1.1,8.17,2.08,12.97,2.93,6.8,1.15,13.1,2.96,18.9,5.44,5.8,2.47,10.46,5.76,13.99,9.86,3.53,4.1,5.29,9.15,5.29,15.15s-1.76,11.43-5.29,15.98c-3.52,4.55-8.19,8.08-13.99,10.58-5.8,2.5-12.1,3.75-18.9,3.75Z"></path><path class="cls-1" d="M686.01,158.54c-7.1,0-13.78-1.41-20.03-4.24s-11.75-6.74-16.5-11.74c-4.75-5-8.47-10.79-11.17-17.36-2.7-6.57-4.05-13.61-4.05-21.11s1.35-14.54,4.05-21.11c2.7-6.57,6.42-12.36,11.17-17.36,4.75-5,10.25-8.91,16.5-11.74,6.25-2.82,12.92-4.24,20.03-4.24s13.85,1.41,20.1,4.24c6.25,2.83,11.75,6.74,16.5,11.74,4.75,5,8.46,10.79,11.14,17.36,2.67,6.58,4.01,13.61,4.01,21.11s-1.34,14.54-4.01,21.11c-2.67,6.58-6.39,12.36-11.14,17.36-4.75,5-10.25,8.91-16.5,11.74s-12.95,4.24-20.1,4.24Zm0-12.6c5.45,0,10.54-1.1,15.26-3.3,4.72-2.2,8.87-5.24,12.45-9.11,3.57-3.87,6.38-8.33,8.4-13.35,2.03-5.02,3.04-10.39,3.04-16.09s-1.03-11.09-3.08-16.16c-2.05-5.07-4.86-9.52-8.44-13.35-3.58-3.83-7.73-6.84-12.45-9.04s-9.79-3.3-15.19-3.3-10.54,1.1-15.26,3.3c-4.72,2.2-8.88,5.24-12.45,9.11-3.58,3.88-6.38,8.33-8.4,13.35-2.03,5.03-3.04,10.39-3.04,16.09s1.02,11.15,3.08,16.2c2.05,5.05,4.86,9.5,8.44,13.35,3.57,3.85,7.73,6.86,12.45,9.04,4.72,2.18,9.79,3.26,15.19,3.26Z"></path><path class="cls-1" d="M752.53,156.59V51.59h13.65l52.42,82.2V51.59h12.6v105h-13.58l-52.5-82.2v82.2h-12.6Z"></path><g><path class="cls-1" d="M956.08,158.54c-7.1,0-13.78-1.41-20.02-4.24-6.25-2.82-11.74-6.72-16.46-11.7-4.72-4.97-8.43-10.76-11.1-17.36-2.68-6.6-4.01-13.65-4.01-21.15s1.34-14.55,4.01-21.15c2.67-6.6,6.38-12.39,11.1-17.36,4.73-4.97,10.21-8.88,16.46-11.7,6.25-2.82,12.92-4.24,20.02-4.24,8.5,0,16.32,1.98,23.48,5.92,7.15,3.95,13.07,9.2,17.77,15.75l-11.17,6c-3.5-4.6-7.91-8.26-13.24-10.99-5.33-2.72-10.94-4.09-16.84-4.09-5.45,0-10.54,1.1-15.26,3.3-4.73,2.2-8.86,5.22-12.41,9.07-3.55,3.85-6.33,8.3-8.33,13.35-2,5.05-3,10.42-3,16.12s1.01,11.15,3.04,16.2c2.02,5.05,4.82,9.5,8.4,13.35,3.57,3.85,7.73,6.86,12.45,9.04,4.73,2.18,9.76,3.26,15.11,3.26,6.1,0,11.76-1.39,16.99-4.16,5.22-2.78,9.59-6.41,13.09-10.91l11.17,6.08c-4.7,6.55-10.62,11.79-17.77,15.71-7.15,3.93-14.98,5.89-23.48,5.89Z"></path><path class="cls-1" d="M1060.86,158.54c-7.1,0-13.78-1.41-20.03-4.24s-11.75-6.74-16.5-11.74c-4.75-5-8.47-10.79-11.17-17.36-2.7-6.57-4.05-13.61-4.05-21.11s1.35-14.54,4.05-21.11c2.7-6.57,6.42-12.36,11.17-17.36,4.75-5,10.25-8.91,16.5-11.74,6.25-2.82,12.92-4.24,20.03-4.24s13.85,1.41,20.1,4.24c6.25,2.83,11.75,6.74,16.5,11.74,4.75,5,8.46,10.79,11.14,17.36,2.67,6.58,4.01,13.61,4.01,21.11s-1.34,14.54-4.01,21.11c-2.67,6.58-6.39,12.36-11.14,17.36-4.75,5-10.25,8.91-16.5,11.74s-12.95,4.24-20.1,4.24Zm0-12.6c5.45,0,10.54-1.1,15.26-3.3,4.72-2.2,8.87-5.24,12.45-9.11,3.57-3.87,6.38-8.33,8.4-13.35,2.03-5.02,3.04-10.39,3.04-16.09s-1.03-11.09-3.08-16.16c-2.05-5.07-4.86-9.52-8.44-13.35-3.58-3.83-7.73-6.84-12.45-9.04s-9.79-3.3-15.19-3.3-10.54,1.1-15.26,3.3c-4.72,2.2-8.88,5.24-12.45,9.11-3.58,3.88-6.38,8.33-8.4,13.35-2.03,5.03-3.04,10.39-3.04,16.09s1.02,11.15,3.08,16.2c2.05,5.05,4.86,9.5,8.44,13.35,3.57,3.85,7.73,6.86,12.45,9.04,4.72,2.18,9.79,3.26,15.19,3.26Z"></path><path class="cls-1" d="M1124.61,156.59l20.33-105h9.67l28.35,74.55,28.28-74.55h9.67l20.4,105h-12.83l-14.78-76.2-26.62,70.5h-8.32l-26.62-70.5-14.7,76.2h-12.83Z"></path></g><path class="cls-2" d="M858.69,149.14c0-7.85,5.65-13.34,12.71-13.34s12.71,5.49,12.71,13.34-5.65,13.34-12.71,13.34-12.71-5.33-12.71-13.34Z"></path></g></g></svg>